<?xml version="1.0" standalone="no"?>
<!DOCTYPE svg PUBLIC "-//W3C//DTD SVG 1.0//EN" "http://www.w3.org/TR/2001/REC-SVG-20010904/DTD/svg10.dtd">
<svg xmlns="http://www.w3.org/2000/svg" xmlns:xlink="http://www.w3.org/1999/xlink" id="body_1" width="1920" height="868">

<g transform="matrix(1.9241154 0 0 1.9241154 -0 0.29659137)">
    <path d="M871.9915 181.55804L902.15094 181.55804L902.15094 285.95612L871.9915 285.95612z" stroke="none" fill="#F2F2F2" fill-rule="nonzero" />
    <path d="M922.068 266.317L848.715 179.052L701.475 180.398L612.156 267.396L613.961 268.556L613.316 268.556L613.316 449.513L921.871 449.513L921.871 268.556L922.068 266.317L922.068 266.317" stroke="none" fill="#F2F2F2" fill-rule="nonzero" />
    <path d="M848.792 179.238L757.154 286.674L757.154 449.513L921.871 449.513L921.871 266.236L848.792 179.238L848.792 179.238" stroke="none" fill="#E6E6E6" fill-rule="nonzero" />
    <path d="M823.2724 359.46082L856.9118 359.46082L856.9118 389.19415L823.2724 389.19415z" stroke="none" fill="#3F3D56" fill-rule="nonzero" />
    <path d="M823.2724 307.99567L856.9118 307.99567L856.9118 337.25748L823.2724 337.25748z" stroke="none" fill="#3F3D56" fill-rule="nonzero" />
    <path d="M823.2724 359.46082L856.9118 359.46082L856.9118 389.19415L823.2724 389.19415z" stroke="none" fill="#FFFFFF" fill-rule="nonzero" />
    <path d="M823.2724 307.99567L856.9118 307.99567L856.9118 337.25748L823.2724 337.25748z" stroke="none" fill="#FFFFFF" fill-rule="nonzero" />
    <path d="M673.7766 351.5713L707.416 351.5713L707.416 381.30463L673.7766 381.30463z" stroke="none" fill="#FFFFFF" fill-rule="nonzero" />
    <path d="M673.7766 300.10614L707.416 300.10614L707.416 329.36795L673.7766 329.36795z" stroke="none" fill="#FFFFFF" fill-rule="nonzero" />
    <path d="M633.9915 181.55804L664.15094 181.55804L664.15094 285.95612L633.9915 285.95612z" stroke="none" fill="#F2F2F2" fill-rule="nonzero" />
    <path d="M684.068 266.317L610.715 179.052L463.475 180.398L374.156 267.396L375.961 268.556L375.316 268.556L375.316 449.513L683.871 449.513L683.871 268.556L684.068 266.317L684.068 266.317" stroke="none" fill="#F2F2F2" fill-rule="nonzero" />
    <path d="M610.792 179.238L519.154 286.674L519.154 449.513L683.871 449.513L683.871 266.236L610.792 179.238L610.792 179.238" stroke="none" fill="#E6E6E6" fill-rule="nonzero" />
    <path d="M585.2724 359.46082L618.9118 359.46082L618.9118 389.19415L585.2724 389.19415z" stroke="none" fill="#3F3D56" fill-rule="nonzero" />
    <path d="M585.2724 307.99567L618.9118 307.99567L618.9118 337.25748L585.2724 337.25748z" stroke="none" fill="#3F3D56" fill-rule="nonzero" />
    <path d="M585.2724 359.46082L618.9118 359.46082L618.9118 389.19415L585.2724 389.19415z" stroke="none" fill="#FFFFFF" fill-rule="nonzero" />
    <path d="M585.2724 307.99567L618.9118 307.99567L618.9118 337.25748L585.2724 337.25748z" stroke="none" fill="#FFFFFF" fill-rule="nonzero" />
    <path d="M435.7766 351.5713L469.41602 351.5713L469.41602 381.30463L435.7766 381.30463z" stroke="none" fill="#FFFFFF" fill-rule="nonzero" />
    <path d="M435.7766 300.10614L469.41602 300.10614L469.41602 329.36795L435.7766 329.36795z" stroke="none" fill="#FFFFFF" fill-rule="nonzero" />
    <path d="M380.1536 91.46021L420.45392 91.46021L420.45392 230.96133L380.1536 230.96133z" stroke="none" fill="#F2F2F2" fill-rule="nonzero" />
    <path d="M447.068 204.718L349.051 88.112L152.302 89.91L32.951 206.161L35.362 207.711L34.501 207.711L34.501 449.513L446.804 449.513L446.804 207.711L447.068 204.718L447.068 204.718" stroke="none" fill="#F2F2F2" fill-rule="nonzero" />
    <path d="M349.153 88.36L226.702 231.921L226.702 449.513L446.804 449.513L446.804 204.611L349.153 88.36L349.153 88.36" stroke="none" fill="#E6E6E6" fill-rule="nonzero" />
    <path d="M315.05307 329.18146L360.00345 329.18146L360.00345 368.9124L315.05307 368.9124z" stroke="none" fill="#3F3D56" fill-rule="nonzero" />
    <path d="M315.05307 260.41156L360.00345 260.41156L360.00345 299.51245L315.05307 299.51245z" stroke="none" fill="#3F3D56" fill-rule="nonzero" />
    <path d="M315.05307 329.18146L360.00345 329.18146L360.00345 368.9124L315.05307 368.9124z" stroke="none" fill="#FFFFFF" fill-rule="nonzero" />
    <path d="M315.05307 260.41156L360.00345 260.41156L360.00345 299.51245L315.05307 299.51245z" stroke="none" fill="#FFFFFF" fill-rule="nonzero" />
    <path d="M115.29041 318.63913L160.2408 318.63913L160.2408 358.37006L115.29041 358.37006z" stroke="none" fill="#FFFFFF" fill-rule="nonzero" />
    <path d="M115.29041 249.8692L160.2408 249.8692L160.2408 288.9701L115.29041 288.9701z" stroke="none" fill="#FFFFFF" fill-rule="nonzero" />
    <path d="M0 448.61996L963.9508 448.61996L963.9508 450.61996L0 450.61996z" stroke="none" fill="#3F3D56" fill-rule="nonzero" />
    <path d="M122.7729 352.47205C 122.7729 319.68048 135.80112 293.0977 151.87222 293.0977C 167.94333 293.0977 180.97154 319.68048 180.97154 352.47205C 180.97154 385.2636 167.94333 411.8464 151.87222 411.8464C 135.80112 411.8464 122.7729 385.2636 122.7729 352.47205" stroke="none" fill="#3F3D56" fill-rule="nonzero" />
    <path transform="matrix(1 0 0 1 -101.06939 -224.59595)"  d="M255.62881 674.2543C 243.97423 604.329 255.51147 534.6564 255.62938 533.96136L255.62938 533.96136L257.8964 534.34534C 257.77905 535.037 246.30806 604.34357 257.89694 673.87695L257.89694 673.87695L255.62881 674.2543z" stroke="none" fill="#2B6FD4" fill-rule="nonzero" />
    <path transform="matrix(0.8817846 -0.47165224 0.47165224 0.8817846 -339.58157 -31.50095)"  d="M251.0257 571.20215L280.86707 571.20215L280.86707 573.5019L251.0257 573.5019z" stroke="none" fill="#2B6FD4" fill-rule="nonzero" />
    <path transform="matrix(0.47190395 -0.88165 0.88165 0.47190395 -486.1247 291.37146)"  d="M237.0232 564.4851L239.3229 564.4851L239.3229 594.3275L237.0232 594.3275z" stroke="none" fill="#2B6FD4" fill-rule="nonzero" />
    <path d="M25.04036 260.9034C 25.04036 196.76698 50.522 144.77414 81.9552 144.77414C 113.3884 144.77414 138.87004 196.76698 138.87004 260.9034C 138.87004 325.03986 113.3884 377.03268 81.9552 377.03268C 50.522 377.03268 25.04036 325.03986 25.04036 260.9034" stroke="none" fill="#2B6FD4" fill-rule="nonzero" />
    <path transform="matrix(1 0 0 1 -101.06939 -224.59595)"  d="M189.364 675.40405C 166.59941 538.8187 189.13437 402.7309 189.36456 401.37225L189.36456 401.37225L191.63156 401.75626C 191.40195 403.11154 168.93323 538.8334 191.63213 675.02673L191.63213 675.02673L189.364 675.40405z" stroke="none" fill="#3F3D56" fill-rule="nonzero" />
    <path transform="matrix(0.8817846 -0.47165224 0.47165224 0.8817846 -301.0624 -69.97216)"  d="M179.27647 475.1252L237.64409 475.1252L237.64409 477.42493L179.27647 477.42493z" stroke="none" fill="#3F3D56" fill-rule="nonzero" />
    <path transform="matrix(0.47189564 -0.88165444 0.88165444 0.47189564 -451.7425 170.111)"  d="M152.98936 460.88882L155.28908 460.88882L155.28908 519.2564L152.98936 519.2564z" stroke="none" fill="#3F3D56" fill-rule="nonzero" />
    <path d="M138.87004 191.008C 138.87004 103.242355 173.73965 32.094254 216.75351 32.094254C 259.76736 32.094254 294.63696 103.242355 294.63696 191.008C 294.63696 278.77362 259.76736 349.92175 216.75351 349.92175C 173.73965 349.92175 138.87004 278.77362 138.87004 191.008" stroke="none" fill="#2B6FD4" fill-rule="nonzero" />
    <path transform="matrix(1 0 0 1 -101.06939 -224.59595)"  d="M326.9161 675.40405C 295.7762 488.5669 326.6017 302.41187 326.91666 300.55353L326.91666 300.55353L329.18365 300.93753C 328.86926 302.79248 298.11 488.58148 329.1842 675.02673L329.1842 675.02673L326.9161 675.40405z" stroke="none" fill="#3F3D56" fill-rule="nonzero" />
    <path transform="matrix(0.8817846 -0.47165224 0.47165224 0.8817846 -249.45003 -10.63875)"  d="M312.6942 401.83115L392.5655 401.83115L392.5655 404.13086L312.6942 404.13086z" stroke="none" fill="#3F3D56" fill-rule="nonzero" />
    <path transform="matrix(0.4718847 -0.8816603 0.8816603 0.4718847 -326.03583 243.55794)"  d="M277.14587 381.92603L279.4456 381.92603L279.4456 461.7973L277.14587 461.7973z" stroke="none" fill="#3F3D56" fill-rule="nonzero" />
    <path d="M841.93005 352.47205C 841.93005 319.68048 854.95825 293.0977 871.02936 293.0977C 887.10046 293.0977 900.12866 319.68048 900.12866 352.47205C 900.12866 385.2636 887.10046 411.8464 871.02936 411.8464C 854.95825 411.8464 841.93005 385.2636 841.93005 352.47205" stroke="none" fill="#3F3D56" fill-rule="nonzero" />
    <path transform="matrix(1 0 0 1 -101.06939 -224.59595)"  d="M969.41156 674.2543C 981.06616 604.329 969.5289 534.6564 969.411 533.96136L969.411 533.96136L967.144 534.34534C 967.2613 535.037 978.7323 604.34357 967.14343 673.87695L967.14343 673.87695L969.41156 674.2543z" stroke="none" fill="#2B6FD4" fill-rule="nonzero" />
    <path transform="matrix(0.4716522 -0.8817847 0.8817847 0.4716522 -99.02545 923.5193)"  d="M957.9441 557.43134L960.24384 557.43134L960.24384 587.2727L957.9441 587.2727z" stroke="none" fill="#2B6FD4" fill-rule="nonzero" />
    <path transform="matrix(0.8816499 -0.47190404 0.47190404 0.8816499 -257.69772 309.6834)"  d="M971.9461 578.2564L1001.7885 578.2564L1001.7885 580.55615L971.9461 580.55615z" stroke="none" fill="#2B6FD4" fill-rule="nonzero" />
    <path d="M884.0315 260.9034C 884.0315 196.76698 909.5131 144.77414 940.94635 144.77414C 972.3796 144.77414 997.8612 196.76698 997.8612 260.9034C 997.8612 325.03986 972.3796 377.03268 940.94635 377.03268C 909.5131 377.03268 884.0315 325.03986 884.0315 260.9034" stroke="none" fill="#2B6FD4" fill-rule="nonzero" />
    <path transform="matrix(1 0 0 1 -101.06939 -224.59595)"  d="M1035.6763 675.40405C 1058.4409 538.8187 1035.9059 402.7309 1035.6757 401.37225L1035.6757 401.37225L1033.4087 401.75626C 1033.6383 403.11154 1056.107 538.8334 1033.4081 675.02673L1033.4081 675.02673L1035.6763 675.40405z" stroke="none" fill="#3F3D56" fill-rule="nonzero" />
    <path transform="matrix(0.4716522 -0.8817847 0.8817847 0.4716522 16.06635 923.44763)"  d="M1015.43024 447.09128L1017.73 447.09128L1017.73 505.4589L1015.43024 505.4589z" stroke="none" fill="#3F3D56" fill-rule="nonzero" />
    <path transform="matrix(0.8816544 -0.4718957 0.4718957 0.8816544 -205.59608 338.75568)"  d="M1041.7173 488.92276L1100.0848 488.92276L1100.0848 491.22247L1041.7173 491.22247z" stroke="none" fill="#3F3D56" fill-rule="nonzero" />
    <path d="M728.2646 191.008C 728.2646 103.242355 763.1342 32.094254 806.1481 32.094254C 849.1619 32.094254 884.03156 103.242355 884.03156 191.008C 884.03156 278.77362 849.1619 349.92175 806.1481 349.92175C 763.1342 349.92175 728.2646 278.77362 728.2646 191.008" stroke="none" fill="#2B6FD4" fill-rule="nonzero" />
    <path transform="matrix(1 0 0 1 -101.06939 -224.59595)"  d="M898.12427 675.40405C 929.26416 488.5669 898.43866 302.41187 898.1237 300.55353L898.1237 300.55353L895.8567 300.93753C 896.1711 302.79248 926.93036 488.58148 895.85614 675.02673L895.85614 675.02673L898.12427 675.40405z" stroke="none" fill="#3F3D56" fill-rule="nonzero" />
    <path transform="matrix(0.4716522 -0.8817847 0.8817847 0.4716522 4.52428 757.5963)"  d="M871.2606 363.04538L873.56036 363.04538L873.56036 442.91663L871.2606 442.91663z" stroke="none" fill="#3F3D56" fill-rule="nonzero" />
    <path transform="matrix(0.8816602 -0.4718848 0.4718848 0.8816602 -188.10194 272.08136)"  d="M906.809 420.7118L986.6803 420.7118L986.6803 423.0115L906.809 423.0115z" stroke="none" fill="#3F3D56" fill-rule="nonzero" />
    <path transform="matrix(1 0 0 1 -101.06939 -224.59595)"  d="M690.67377 326.06186L699.87946 318.69907C 692.72797 317.91006 689.78955 321.81033 688.587 324.89743C 683 322.57742 676.9178 325.6179 676.9178 325.6179L676.9178 325.6179L695.3367 332.3046C 694.40753 329.8227 692.79 327.65714 690.67377 326.06186z" stroke="none" fill="#3F3D56" fill-rule="nonzero" />
    <path transform="matrix(1 0 0 1 -101.06939 -224.59595)"  d="M465.67377 261.06186L474.87946 253.69907C 467.72797 252.91006 464.78955 256.81033 463.58698 259.89743C 457.99997 257.57742 451.9178 260.6179 451.9178 260.6179L451.9178 260.6179L470.33667 267.3046C 469.40747 264.8227 467.78995 262.65714 465.67377 261.06186z" stroke="none" fill="#3F3D56" fill-rule="nonzero" />
    <path transform="matrix(1 0 0 1 -101.06939 -224.59595)"  d="M832.67377 232.06186L841.87946 224.69907C 834.72797 223.91006 831.78955 227.81033 830.587 230.89743C 825 228.57742 818.9178 231.61789 818.9178 231.61789L818.9178 231.61789L837.3367 238.3046C 836.40753 235.8227 834.79 233.65715 832.67377 232.06186z" stroke="none" fill="#3F3D56" fill-rule="nonzero" />
    <path transform="matrix(1 0 0 1 -101.06939 -224.59595)"  d="M851.2603 661.648C 848.8131 661.6477 846.4091 662.2926 844.2908 663.51776C 839.8952 659.5429 833.56976 658.53253 828.1548 660.9404C 822.73975 663.34827 819.25305 668.7218 819.2603 674.648L819.2603 674.648L865.20984 674.648C 864.69025 667.3263 858.60046 661.65106 851.2603 661.648z" stroke="none" fill="#3F3D56" fill-rule="nonzero" />
    <path transform="matrix(1 0 0 1 -101.06939 -224.59595)"  d="M384.26035 661.648C 381.8132 661.6477 379.4092 662.2926 377.2908 663.51776C 372.89532 659.5429 366.5699 658.53253 361.15488 660.9404C 355.73987 663.34827 352.25314 668.7218 352.26035 674.648L352.26035 674.648L398.20987 674.648C 397.69022 667.3263 391.60046 661.65106 384.26035 661.648z" stroke="none" fill="#3F3D56" fill-rule="nonzero" />
    <path transform="matrix(1 0 0 1 -101.06939 -224.59595)"  d="M623.2603 661.648C 620.8131 661.6477 618.4091 662.2926 616.2908 663.51776C 611.8952 659.5429 605.56976 658.53253 600.1548 660.9404C 594.73975 663.34827 591.25305 668.7218 591.2603 674.648L591.2603 674.648L637.20984 674.648C 636.69025 667.3263 630.60046 661.65106 623.2603 661.648z" stroke="none" fill="#3F3D56" fill-rule="nonzero" />
    <path d="M471.759 404.228L339.191 404.228L339.191 408.504L359.866 408.504L359.866 449.13L364.142 449.13L364.142 408.504L444.669 408.504L444.669 449.13L448.946 449.13L448.946 408.504L471.759 408.504L471.759 404.228L471.759 404.228" stroke="none" fill="#3F3D56" fill-rule="nonzero" />
    <path d="M339.4519 391.43405L472.02 391.43405L472.02 395.71045L339.4519 395.71045z" stroke="none" fill="#3F3D56" fill-rule="nonzero" />
    <path d="M339.4519 380.74307L472.02 380.74307L472.02 385.01947L339.4519 385.01947z" stroke="none" fill="#3F3D56" fill-rule="nonzero" />
    <path d="M339.4519 370.0521L472.02 370.0521L472.02 374.3285L339.4519 374.3285z" stroke="none" fill="#3F3D56" fill-rule="nonzero" />
    <path d="M678.759 404.228L546.191 404.228L546.191 408.504L566.866 408.504L566.866 449.13L571.142 449.13L571.142 408.504L651.669 408.504L651.669 449.13L655.946 449.13L655.946 408.504L678.759 408.504L678.759 404.228L678.759 404.228" stroke="none" fill="#3F3D56" fill-rule="nonzero" />
    <path d="M546.4519 391.43405L679.02 391.43405L679.02 395.71045L546.4519 395.71045z" stroke="none" fill="#3F3D56" fill-rule="nonzero" />
    <path d="M546.4519 380.74307L679.02 380.74307L679.02 385.01947L546.4519 385.01947z" stroke="none" fill="#3F3D56" fill-rule="nonzero" />
    <path d="M546.4519 370.0521L679.02 370.0521L679.02 374.3285L546.4519 374.3285z" stroke="none" fill="#3F3D56" fill-rule="nonzero" />
</g>
</svg>